<?xml version="1.0" encoding="UTF-8" standalone="no"?>
<svg
   xmlns:dc="http://purl.org/dc/elements/1.1/"
   xmlns:cc="http://creativecommons.org/ns#"
   xmlns:rdf="http://www.w3.org/1999/02/22-rdf-syntax-ns#"
   xmlns:svg="http://www.w3.org/2000/svg"
   xmlns="http://www.w3.org/2000/svg"
   xmlns:sodipodi="http://sodipodi.sourceforge.net/DTD/sodipodi-0.dtd"
   xmlns:inkscape="http://www.inkscape.org/namespaces/inkscape"
   width="136.79936mm"
   height="108.53703mm"
   viewBox="0 0 136.79936 108.53703"
   version="1.1"
   id="svg8"
   inkscape:version="1.0.2 (e86c8708, 2021-01-15)"
   sodipodi:docname="drawing.svg">
  <defs
     id="defs2" />
  <sodipodi:namedview
     id="base"
     pagecolor="#ffffff"
     bordercolor="#666666"
     borderopacity="1.0"
     inkscape:pageopacity="0.0"
     inkscape:pageshadow="2"
     inkscape:zoom="1.4"
     inkscape:cx="253.80204"
     inkscape:cy="247.30733"
     inkscape:document-units="mm"
     inkscape:current-layer="g20"
     inkscape:document-rotation="0"
     showgrid="false"
     inkscape:window-width="1252"
     inkscape:window-height="1174"
     inkscape:window-x="0"
     inkscape:window-y="25"
     inkscape:window-maximized="0" />
  <metadata
     id="metadata5">
    <rdf:RDF>
      <cc:Work
         rdf:about="">
        <dc:format>image/svg+xml</dc:format>
        <dc:type
           rdf:resource="http://purl.org/dc/dcmitype/StillImage" />
        <dc:title></dc:title>
      </cc:Work>
    </rdf:RDF>
  </metadata>
  <g
     inkscape:label="Layer 1"
     inkscape:groupmode="layer"
     id="layer1"
     transform="translate(-54.820609,-118.20492)">
    <g
       id="g20"
       transform="matrix(0.03527778,0,0,-0.03527778,35.025788,226.74195)">
      <path
         d="m 3225.27,263.539 h 86.93 v -2.5 h -86.93 v 2.5"
         style="fill:#eeeeee;fill-opacity:1;fill-rule:nonzero;stroke:none"
         id="path26" />
      <path
         d="m 1045.56,366.73 h 63.33 v -2.5 h -63.33 v 2.5"
         style="fill:#eeeeee;fill-opacity:1;fill-rule:nonzero;stroke:none"
         id="path32" />
      <path
         d="M 4438.89,113.23 C 4438.89,50.6914 3570.83,0 2500,0 1429.18,0 561.113,50.6914 561.113,113.23 c 0,62.54 868.067,113.239 1938.887,113.239 1070.83,0 1938.89,-50.699 1938.89,-113.239"
         style="fill:#f8f8f9;fill-opacity:1;fill-rule:nonzero;stroke:none"
         id="path90" />
      <path
         d="m 1383.85,2020.02 68.57,39.16 c 0,0 26.37,40.75 34.28,42.6 7.91,1.86 94.95,0 94.95,0 0,0 -13.19,-56.32 -14.51,-67.45 -1.32,-11.13 -84.39,0 -84.39,0 l -67.26,-40.14 -31.64,25.83"
         style="fill:#f9a95e;fill-opacity:1;fill-rule:nonzero;stroke:none"
         id="path92" />
      <path
         d="m 744.918,196.02 -71.84,14.32 c -2.644,-0.02 -4.93,-1.852 -5.5,-4.43 l -19.297,-71.808 c -1.09,-5.133 2.203,-10.192 7.348,-11.293 l 2.098,-0.2 c 25.363,0.411 43.839,1.973 75.695,1.973 19.625,0 78.82,-2.051 105.914,-2.051 27.094,0 30.625,26.77 19.543,29.231 -49.758,10.84 -87.195,25.859 -103.121,40.148 -2.957,2.711 -6.836,4.172 -10.84,4.11"
         style="fill:#1d2a30;fill-opacity:1;fill-rule:nonzero;stroke:none"
         id="path94" />
      <path
         d="m 1623.57,198.07 h -78.4 c -2.65,-0.019 -4.93,-1.859 -5.5,-4.441 l -12.73,-57.469 c -1.09,-5.14 2.2,-10.199 7.35,-11.289 l 2.09,-0.199 c 25.37,0.406 43.84,1.957 75.7,1.957 19.62,0 78.82,-2.047 105.91,-2.047 27.1,0 30.63,26.77 19.54,29.227 -49.75,10.839 -87.19,25.863 -103.12,40.152 -2.95,2.711 -6.83,4.18 -10.84,4.109"
         style="fill:#1d2a30;fill-opacity:1;fill-rule:nonzero;stroke:none"
         id="path96" />
      <path
         d="m 883.254,1518.93 332.056,84.2 c 75.29,-164.4 351.63,-839.419 418.56,-1401.001 l -112.41,-28.508 c 0,0 -198.93,828.219 -365.83,1069.839 0,0 -8.95,-367.659 -27.03,-421.128 C 1113.72,778.309 771.977,189.57 771.977,189.57 l -110.973,12.59 c 0,0 278.461,600.969 295.426,675.809 11.566,51.043 -39.184,425.611 -39.184,425.611 -8.992,33.46 -22.301,171.73 -22.301,171.73 0,0 -10.023,36.73 -11.691,43.62"
         style="fill:#4870c0;fill-opacity:1;fill-rule:nonzero;stroke:none"
         id="path98" />
      <path
         d="m 1521.46,173.621 c 0,0 -11.05,45.988 -30.11,119.43 38.85,16.48 79.36,34.109 121.41,52.961 8.35,-48.5 15.48,-96.614 21.11,-143.883 l -16.02,-4.059 -81.79,-20.738 -14.6,-3.711 m -749.483,15.949 -15.579,1.77 -89.992,10.211 -5.402,0.609 c 0,0 278.461,600.969 295.426,675.809 1.187,5.23 1.718,13.871 1.715,25.152 -0.02,98.759 -40.899,400.459 -40.899,400.459 -6.48,24.1 -15.195,102.6 -19.562,144.61 0.226,9.47 0.539,18.84 0.961,28.12 l 103.455,27.61 -9.799,38.4 -90.797,-23 c 0,0.01 0.004,0.03 0.004,0.04 l 315.502,80.05 c 61.97,-136.17 248.19,-589.85 354.66,-1050.851 -46.23,-21.149 -90.78,-40.868 -133.36,-59.207 -1.51,5.339 -3,10.648 -4.54,16.058 -19.77,69.86 -42.06,145.531 -65.97,221.531 -64.72,205.719 -141.33,413.959 -212.17,516.519 0,0 -5.33,-218.77 -16.06,-343.339 -0.07,-0.84 -0.14,-1.672 -0.22,-2.5 -3.13,-35.723 -6.71,-63.351 -10.75,-75.289 -7.15,-21.152 -89.71,-167.973 -173.596,-314.863 -8.953,-15.68 -17.934,-31.387 -26.828,-46.91 -1.715,-3 -3.403,-5.95 -5.113,-8.93 -0.473,-0.828 -0.958,-1.668 -1.43,-2.5 -16.289,-28.418 -32.258,-56.219 -47.324,-82.399 -0.489,-0.851 -0.957,-1.66 -1.442,-2.5 -57,-99.039 -100.89,-174.66 -100.89,-174.66 m 362.963,1174.37 20.72,-120.5 c 24.62,-35.6 49.25,-81.61 73.52,-134.25 -22.94,129.41 -94.24,254.75 -94.24,254.75"
         style="fill:#2e53ac;fill-opacity:1;fill-rule:nonzero;stroke:none"
         id="path100" />
      <path
         d="m 1229.18,1109.19 c -24.27,52.64 -48.9,98.65 -73.52,134.25 l -20.72,120.5 c 0,0 71.3,-125.34 94.24,-254.75"
         style="fill:#274491;fill-opacity:1;fill-rule:nonzero;stroke:none"
         id="path102" />
      <path
         d="m 1460.5,2014.32 c 0,0 -151.4,-102.2 -191.3,-107.6 -15.9,-2.21 -48.7,3.19 -82.6,10.4 -51.4,11 -105,26.4 -105,26.4 l -6.7,50.69 -7.1,54.21 c 12,4 168.6,-60.4 192,-69.61 23.4,-9.19 174.7,80.4 174.7,80.4 l 26,-44.89"
         style="fill:#1d2a30;fill-opacity:1;fill-rule:nonzero;stroke:none"
         id="path104" />
      <path
         d="m 992.301,1542.32 9.799,-38.4 -107.198,-28.61 -10,39.81 107.399,27.2"
         style="fill:#100f0d;fill-opacity:1;fill-rule:nonzero;stroke:none"
         id="path106" />
      <path
         d="m 1161.4,1585.22 9.3,-36.4 -156.7,-41.81 -9.8,38.3 157.2,39.91"
         style="fill:#100f0d;fill-opacity:1;fill-rule:nonzero;stroke:none"
         id="path108" />
      <path
         d="m 1232.4,1565.22 -49.9,-13.31 -9.2,36.3 45.8,11.61 13.3,-34.6"
         style="fill:#100f0d;fill-opacity:1;fill-rule:nonzero;stroke:none"
         id="path110" />
      <path
         d="m 1076.29,1523.64 61.82,15.68 -11.29,44.55 -61.82,-15.68 11.29,-44.55"
         style="fill:#ffffff;fill-opacity:1;fill-rule:nonzero;stroke:none"
         id="path112" />
      <path
         d="m 1219,1599.91 -334.199,-84.79 c -16.301,44.1 -32.903,88.49 -49.098,131.8 -11.902,31.69 -23.601,62.8 -35,92.89 -2.898,7.71 -5.801,15.31 -8.699,22.81 -3.406,8.99 -6.805,17.9 -10.106,26.6 -7.394,19.49 -14.496,38.3 -21.402,56.3 -6.394,16.8 -12.594,32.9 -18.398,48.09 -2.996,7.81 -5.899,15.4 -8.7,22.81 -5.898,15.4 -11.394,29.79 -16.5,43 l 350.902,89 C 1183.6,1846.51 1219,1599.91 1219,1599.91"
         style="fill:#1d2a30;fill-opacity:1;fill-rule:nonzero;stroke:none"
         id="path114" />
      <path
         d="m 844.355,1967.97 c 36.137,-17.23 102.77,13.26 102.77,13.26 0,0 22.113,24.4 8.914,35.21 -26.824,-3.48 -25.101,5.26 -34.812,18.98 -5.641,7.99 -9.098,17.86 -11.387,28.4 -1.262,5.52 -2.098,11.25 -2.766,16.94 l -105.097,37.73 c 23.918,-38.6 60.984,-111.7 42.378,-150.52"
         style="fill:#f9a95e;fill-opacity:1;fill-rule:nonzero;stroke:none"
         id="path116" />
      <path
         d="m 971.223,2275.3 c 0,0 27.445,-83.01 -12.215,-123.48 -39.653,-40.47 -66.629,118.17 -66.629,118.17 l 78.844,5.31"
         style="fill:#1d2a30;fill-opacity:1;fill-rule:nonzero;stroke:none"
         id="path118" />
      <path
         d="m 839.215,2061.75 c 27.308,-27.8 64.508,-29.98 93.906,-14.86 18.91,9.69 34.57,26.6 42.352,48.4 1.054,2.85 1.925,5.83 2.703,8.88 13.406,55.85 4.992,148.15 -55.875,172.93 -43.281,17.97 -93.055,-2.55 -111.012,-45.91 -5.191,-12.3 -7.285,-25.69 -6.312,-39.04 3.593,-62.03 2.777,-98.67 34.238,-130.4"
         style="fill:#f9a95e;fill-opacity:1;fill-rule:nonzero;stroke:none"
         id="path120" />
      <path
         d="m 899.27,2174.72 c -0.36,-5.02 2.628,-9.15 5.988,-9.14 3.359,0 5.972,4.13 6.012,9.17 0.035,5.04 -2.715,9.15 -5.997,9.14 -3.277,-0.01 -5.964,-4.06 -6.003,-9.17"
         style="fill:#1d2a30;fill-opacity:1;fill-rule:nonzero;stroke:none"
         id="path122" />
      <path
         d="m 956.461,2174.68 c -0.356,-5.02 2.711,-9.15 5.988,-9.14 3.281,0 5.973,4.13 6.008,9.17 0.039,5.04 -2.711,9.15 -5.992,9.14 -3.281,-0.01 -5.988,-4.37 -6.004,-9.17"
         style="fill:#1d2a30;fill-opacity:1;fill-rule:nonzero;stroke:none"
         id="path124" />
      <path
         d="m 938.285,2172.2 c 6.012,-15.48 14.137,-30.05 24.137,-43.3 -7.035,-5.02 -15.938,-6.68 -24.317,-4.52 l 0.18,47.82"
         style="fill:#ec782f;fill-opacity:1;fill-rule:nonzero;stroke:none"
         id="path126" />
      <path
         d="m 977.371,2198.15 c -1.008,-0.47 -2.183,-0.37 -3.094,0.27 -6,4.59 -13.812,6.07 -21.078,4.01 -1.523,-0.58 -3.226,0.18 -3.812,1.7 -0.586,1.52 0.176,3.23 1.699,3.82 h 0.008 c 9.121,2.84 19.051,1.09 26.64,-4.71 1.348,-0.92 1.696,-2.76 0.778,-4.1 l -0.043,-0.06 -1.098,-0.93"
         style="fill:#1d2a30;fill-opacity:1;fill-rule:nonzero;stroke:none"
         id="path128" />
      <path
         d="m 888.027,2197.46 -1.656,0.57 c -1.09,1.22 -0.988,3.08 0.227,4.17 l 0.043,0.05 c 7.086,6.46 16.867,9.06 26.218,6.98 1.571,-0.44 2.477,-2.08 2.036,-3.64 v -0.01 c -0.485,-1.55 -2.098,-2.44 -3.661,-2.03 -7.429,1.42 -15.101,-0.75 -20.675,-5.86 l -2.532,-0.23"
         style="fill:#1d2a30;fill-opacity:1;fill-rule:nonzero;stroke:none"
         id="path130" />
      <path
         d="m 850.613,2269.63 5.965,-11.52 c -20.187,-7.66 -15.019,-31.26 -10.379,-41.84 9.918,-22.6 -1.457,-58.9 -18.445,-73.96 0,0 -1.016,9.94 -9.316,7.18 -8.301,-2.76 -3.536,-54.56 14.031,-78.55 0,0 -25.867,21.23 -42.442,75.07 -15.332,49.8 -18.914,91.72 -9.476,111.71 l 70.062,11.91"
         style="fill:#1d2a30;fill-opacity:1;fill-rule:nonzero;stroke:none"
         id="path132" />
      <path
         d="m 777.801,2141.23 c 6.883,-14.07 19.058,-24.82 33.863,-29.92 19.649,-6.61 30.547,10.73 26.035,29.86 -4.168,16.97 -19.316,41.41 -39.515,39.53 -20.196,-1.89 -28.614,-22.11 -20.383,-39.47"
         style="fill:#f9a95e;fill-opacity:1;fill-rule:nonzero;stroke:none"
         id="path134" />
      <path
         d="m 849.957,2036.76 c 29.445,-20.63 86.703,-27.3 114.824,10.06 28.125,37.36 19.09,97.15 19.09,97.15 -4.605,-21 -17.965,-36.56 -17.965,-36.56 -15.773,19.09 -42.875,8.37 -42.875,8.37 0,0 -9.926,13.15 -23.015,14.45 -13.09,1.29 -49.668,-0.89 -49.668,-0.89 -11.868,7.44 -12.301,40.89 -12.301,40.89 l -7.199,-5.98 c 0,0 -10.336,-106.86 19.109,-127.49"
         style="fill:#1d2a30;fill-opacity:1;fill-rule:nonzero;stroke:none"
         id="path136" />
      <path
         d="m 928.574,2248.45 c 0,0 69.641,33.97 61.696,67.92 -7.946,33.95 -28.637,-4.73 -28.637,-4.73 0,0 9.418,25.81 -8.992,29.43 -18.403,3.61 -12.313,-11.75 -22.231,-21.66 -9.914,-9.91 -106.976,4.49 -138.308,-14.86 -31.34,-19.35 -7.36,-86.53 -7.36,-86.53 0,0 58.731,63.6 143.832,30.43"
         style="fill:#1d2a30;fill-opacity:1;fill-rule:nonzero;stroke:none"
         id="path138" />
      <path
         d="m 905.961,2020.03 c -20.879,0 -41.715,6.72 -56.004,16.73 -15.437,10.81 -19.941,45.33 -20.73,75.73 -0.094,3.63 -0.137,7.2 -0.137,10.67 -0.004,22.85 1.758,41.09 1.758,41.09 l 7.199,5.98 v 0 c 0,-0.13 0.457,-33.46 12.301,-40.89 0,0 21.722,1.3 37.679,1.3 4.746,0 8.985,-0.12 11.989,-0.41 13.089,-1.3 23.015,-14.45 23.015,-14.45 0,0 7.578,3 17.059,3 8.437,0 18.387,-2.38 25.816,-11.37 0,0 13.36,15.56 17.965,36.56 0,0 1.379,-9.13 1.383,-22.47 0.004,-20.82 -3.336,-51.91 -20.473,-74.68 -5.59,-7.42 -12.324,-13.1 -19.761,-17.29 l -23.793,5.89 -0.875,-14.28 c -4.747,-0.76 -9.571,-1.11 -14.391,-1.11"
         style="fill:#45555c;fill-opacity:1;fill-rule:nonzero;stroke:none"
         id="path140" />
      <path
         d="m 926.012,2096.59 c -6.27,-7.56 -14.508,-22.67 -14.508,-22.67 -1.504,0.49 -3.008,0.99 -4.484,1.57 -20.219,7.29 -27.196,17.35 -28.793,26.29 -0.86,4.9 -0.043,9.5 1.089,13.08 1.27,4.15 3.122,6.83 3.122,6.83 8.414,-10.27 26.742,-18.52 36.718,-22.5 4.16,-1.72 6.856,-2.6 6.856,-2.6"
         style="fill:#1d2a30;fill-opacity:1;fill-rule:nonzero;stroke:none"
         id="path142" />
      <path
         d="m 919.156,2099.19 -4.453,-6.58 c -19.027,6.91 -31.5,14.32 -35.387,22.25 1.27,4.15 3.122,6.83 3.122,6.83 8.414,-10.27 26.742,-18.52 36.718,-22.5"
         style="fill:#ffffff;fill-opacity:1;fill-rule:nonzero;stroke:none"
         id="path144" />
      <path
         d="m 907.02,2075.49 c -20.219,7.29 -27.196,17.35 -28.793,26.29 6.793,-2.75 14.683,-6.81 20.851,-12.54 4.735,-4.36 6.938,-9.24 7.942,-13.75"
         style="fill:#f03e4c;fill-opacity:1;fill-rule:nonzero;stroke:none"
         id="path146" />
      <path
         d="m 960.301,1981.07 -5.879,-51.77 107.998,-230.1 -10.75,-30.51 -35.32,16.37 -76.912,234.6 -56.649,38.39 41.199,22.54 36.313,0.48"
         style="fill:#4870c0;fill-opacity:1;fill-rule:nonzero;stroke:none"
         id="path148" />
      <path
         d="m 846.762,2016.54 71.496,-29.54 2.969,48.42 52.675,-13.03 4.473,-73.72 -50.727,20.75 -21.14,-47.22 -90.137,60.24 30.391,34.1"
         style="fill:#1d2a30;fill-opacity:1;fill-rule:nonzero;stroke:none"
         id="path150" />
      <path
         d="m 906.508,1922.2 -90.137,60.24 30.391,34.1 71.496,-29.54 2.969,48.42 52.675,-13.03 4.473,-73.72 -20.785,8.5 -29.942,12.25 -14.347,-32.05 -6.793,-15.17"
         style="fill:#45555c;fill-opacity:1;fill-rule:nonzero;stroke:none"
         id="path152" />
      <path
         d="m 781.898,1789.22 v 0 c -7.394,19.49 -14.496,38.3 -21.402,56.3 -6.394,16.8 -12.594,32.9 -18.398,48.09 -2.996,7.81 -5.899,15.4 -8.7,22.81 3.192,1.49 7.723,2.25 12.68,2.25 11.363,0 24.969,-4.01 29.887,-12.55 26.012,-45.12 5.933,-116.9 5.933,-116.9"
         style="fill:#182124;fill-opacity:1;fill-rule:nonzero;stroke:none"
         id="path154" />
      <path
         d="m 835.703,1646.92 v 0 c -11.902,31.69 -23.601,62.8 -35,92.89 -2.898,7.71 -5.801,15.31 -8.699,22.81 -3.406,8.99 -6.805,17.9 -10.106,26.6 l 115.801,-14.71 9.496,-36.09 c 0,0 -7.691,-57.21 -71.492,-91.5"
         style="fill:#182124;fill-opacity:1;fill-rule:nonzero;stroke:none"
         id="path156" />
      <path
         d="m 1173.45,1920.01 c -17.18,3.88 -34.08,8.07 -48.6,11.82 -8.02,19.18 -16.66,38.46 -25.94,57.59 27.11,-7.2 69.44,-24.35 84.67,-62.96 -3.38,-2.14 -6.76,-4.29 -10.13,-6.45"
         style="fill:#182124;fill-opacity:1;fill-rule:nonzero;stroke:none"
         id="path158" />
      <path
         d="m 1124.85,1931.83 c -25.2,6.5 -43.25,11.69 -43.25,11.69 l -6.7,50.69 c 0,0 9.96,-1.06 24.01,-4.79 9.28,-19.13 17.92,-38.41 25.94,-57.59 v 0"
         style="fill:#182124;fill-opacity:1;fill-rule:nonzero;stroke:none"
         id="path160" />
      <path
         d="m 716.91,735.68 c -4.336,0 -8.637,1.859 -11.601,5.468 -5.262,6.411 -4.332,15.864 2.074,21.122 166.871,137 163.676,351.76 160.586,559.47 -2.328,156.61 -4.531,304.54 69.109,405.18 103.422,141.35 519.332,365.65 588.272,372.05 49.23,4.93 1552.98,422.84 2341.24,643.13 7.98,2.24 16.25,-2.43 18.49,-10.41 2.22,-7.98 -2.43,-16.25 -10.41,-18.49 -93.26,-26.06 -2284.75,-638.36 -2346.55,-644.1 -59.32,-5.51 -471.01,-228.93 -566.831,-359.89 -67.703,-92.53 -65.578,-235.58 -63.324,-387.02 3.047,-204.81 6.5,-436.94 -171.547,-583.108 -2.789,-2.293 -6.16,-3.402 -9.508,-3.402"
         style="fill:#1d2a30;fill-opacity:1;fill-rule:nonzero;stroke:none"
         id="path162" />
      <path
         d="m 708.637,738.148 c -1.223,0.793 -2.348,1.782 -3.332,2.961 -3.114,3.762 -4.055,8.59 -3.008,13 -1.031,-4.39 -0.074,-9.199 3.012,-12.961 0.976,-1.187 2.101,-2.187 3.328,-3 m -4.297,20.731 c 0.82,1.262 1.844,2.43 3.062,3.441 29.981,24.602 54.477,51.731 74.465,80.871 -19.992,-29.16 -44.488,-56.3 -74.484,-80.921 -1.211,-1 -2.231,-2.141 -3.043,-3.391 m 96.992,60.172 c 17.742,24.89 32.328,51.211 44.281,78.57 h 0.012 c -11.957,-27.371 -26.535,-53.68 -44.293,-78.57 m 45.379,81.07 h -0.012 c 55.614,129.339 53.348,282.089 51.266,422.069 -0.641,43.03 -1.27,85.38 -0.289,126.09 0,-0.03 0.004,-0.06 0.008,-0.09 -0.973,-40.67 -0.336,-83 0.312,-125.97 2.055,-139.98 4.336,-292.76 -51.285,-422.099"
         style="fill:#ffffff;fill-opacity:1;fill-rule:nonzero;stroke:none"
         id="path164" />
      <path
         d="m 845.625,897.621 h -0.012 c 0.367,0.84 0.723,1.66 1.086,2.5 h 0.012 c -0.363,-0.84 -0.719,-1.66 -1.086,-2.5"
         style="fill:#f6f7f7;fill-opacity:1;fill-rule:nonzero;stroke:none"
         id="path166" />
      <path
         d="m 897.684,1448.19 c -0.004,0.03 -0.008,0.06 -0.008,0.09 0.226,9.43 0.539,18.78 0.957,28.03 h 0.012 c -0.422,-9.28 -0.735,-18.65 -0.961,-28.12 m 3.812,71.13 c 0.004,0.02 0.004,0.02 0.004,0.03 l 0.008,0.01 c 0,-0.01 -0.004,-0.03 -0.004,-0.04 h -0.008"
         style="fill:#7b98d6;fill-opacity:1;fill-rule:nonzero;stroke:none"
         id="path168" />
      <path
         d="m 898.633,1476.31 c 0.664,14.6 1.594,28.95 2.863,43.01 h 0.008 c -1.274,-14.05 -2.199,-28.41 -2.859,-43.01 h -0.012"
         style="fill:#5e6061;fill-opacity:1;fill-rule:nonzero;stroke:none"
         id="path170" />
      <path
         d="m 901.5,1519.35 c 6.68,73.77 22.828,139.35 59.789,189.86 1.422,1.94 2.902,3.89 4.461,5.88 -1.551,-1.98 -3.035,-3.94 -4.449,-5.87 -36.965,-50.5 -53.117,-116.08 -59.793,-189.86 l -0.008,-0.01"
         style="fill:#758288;fill-opacity:1;fill-rule:nonzero;stroke:none"
         id="path172" />
      <path
         d="m 867.164,1403.52 c 0.008,49.03 1.414,96.44 6.75,140.98 0.004,-0.01 0.012,-0.03 0.016,-0.04 -5.328,-44.53 -6.746,-91.92 -6.766,-140.94"
         style="fill:#ffffff;fill-opacity:1;fill-rule:nonzero;stroke:none"
         id="path174" />
      <path
         d="m 873.93,1544.46 c -0.004,0.01 -0.012,0.03 -0.016,0.04 6.316,52.74 18.141,101.44 39.649,143.92 -21.5,-42.51 -33.317,-91.21 -39.633,-143.96"
         style="fill:#758288;fill-opacity:1;fill-rule:nonzero;stroke:none"
         id="path176" />
      <path
         d="m 1138.71,1897.27 -0.01,0.02 c 11.44,7.64 23.05,15.23 34.75,22.72 0.02,0 0.03,0 0.04,-0.01 -11.72,-7.5 -23.33,-15.08 -34.78,-22.73"
         style="fill:#ffffff;fill-opacity:1;fill-rule:nonzero;stroke:none"
         id="path178" />
      <path
         d="m 1013.12,1804.25 h -0.01 c 36.12,30.54 79.49,62.25 125.59,93.04 l 0.01,-0.02 c -46.1,-30.79 -89.48,-62.49 -125.59,-93.02"
         style="fill:#758288;fill-opacity:1;fill-rule:nonzero;stroke:none"
         id="path180" />
      <path
         d="m 1001.1,1793.9 c 3.91,3.43 7.92,6.89 12.01,10.35 h 0.01 c -4.1,-3.46 -8.11,-6.92 -12.02,-10.35"
         style="fill:#8daee0;fill-opacity:1;fill-rule:nonzero;stroke:none"
         id="path182" />
      <path
         d="m 1337.64,2016.49 0.02,0.06 c 10.25,5.52 20.32,10.85 30.14,15.95 v -0.05 c -9.82,-5.1 -19.9,-10.43 -30.16,-15.96"
         style="fill:#ffffff;fill-opacity:1;fill-rule:nonzero;stroke:none"
         id="path184" />
      <path
         d="m 1433.77,2065.05 v 0.06 c 5.51,2.56 10.82,4.98 15.99,7.29 l 0.01,-0.05 c -5.15,-2.3 -10.5,-4.74 -16,-7.3"
         style="fill:#fbfcfc;fill-opacity:1;fill-rule:nonzero;stroke:none"
         id="path186" />
      <path
         d="m 1270.02,1978.76 c 23.06,13.35 45.79,26.02 67.64,37.79 l -0.02,-0.06 c -21.82,-11.75 -44.48,-24.38 -67.51,-37.71 -0.04,0 -0.07,-0.01 -0.11,-0.02 m 97.78,53.69 v 0.05 c 23.67,12.29 45.91,23.27 65.97,32.61 v -0.06 c -20.06,-9.33 -42.3,-20.32 -65.97,-32.6 m 81.97,39.9 -0.01,0.05 c 5.82,2.6 11.43,5.05 16.77,7.3 -0.02,-0.02 -0.04,-0.05 -0.06,-0.08 -5.32,-2.25 -10.9,-4.68 -16.7,-7.27"
         style="fill:#efefef;fill-opacity:1;fill-rule:nonzero;stroke:none"
         id="path188" />
      <path
         d="m 1542.07,2102.42 c -0.06,0.01 -0.13,0.01 -0.19,0.01 32.25,7.55 106.77,27.11 211.58,55.31 l 0.02,-0.02 c -104.67,-28.17 -179.09,-47.72 -211.41,-55.3 m 245.08,64.37 -0.03,0.03 c 162.74,43.93 387.85,105.68 637.59,174.6 v -0.03 c -249.68,-68.9 -474.86,-130.66 -637.56,-174.6 m 640.06,175.29 v 0.03 c 38.75,10.69 78.05,21.55 117.84,32.55 v -0.03 c -39.72,-10.98 -79.15,-21.87 -117.84,-32.55 m 120.34,33.24 v 0.03 c 2.04,0.56 4.06,1.12 6.11,1.69 l -0.06,-0.04 c -2.05,-0.57 -4,-1.11 -6.05,-1.68 m 88.06,24.36 0.05,0.04 c 62.57,17.31 125.97,34.87 189.64,52.53 l 0.01,-0.02 c -63.66,-17.65 -127.14,-35.24 -189.7,-52.55 m 221.86,61.47 -0.01,0.01 c 234.75,65.11 472.19,131.16 686.21,190.81 -214.02,-59.66 -451.45,-125.72 -686.2,-190.82"
         style="fill:#ffffff;fill-opacity:1;fill-rule:nonzero;stroke:none"
         id="path190" />
      <path
         d="m 2424.71,2341.39 v 0.03 c 0.83,0.23 1.67,0.46 2.5,0.69 v -0.03 c -0.89,-0.24 -1.62,-0.44 -2.5,-0.69"
         style="fill:#f6f7f7;fill-opacity:1;fill-rule:nonzero;stroke:none"
         id="path192"
         sodipodi:nodetypes="ccccc" />
      <path
         d="m 2545.05,2374.63 v 0.03 c 0.79,0.22 1.7,0.47 2.5,0.69 v -0.03 c -0.85,-0.23 -1.66,-0.45 -2.5,-0.69"
         style="fill:#f6f7f7;fill-opacity:1;fill-rule:nonzero;stroke:none"
         id="path194"
         sodipodi:nodetypes="ccccc" />
      <path
         d="m 1753.48,2157.72 -0.02,0.02 c 10.88,2.93 22.14,5.96 33.66,9.08 l 0.03,-0.03 c -11.53,-3.11 -22.78,-6.14 -33.67,-9.07 m 800.12,219.28 0.06,0.04 c 27.17,7.51 54.47,15.06 82,22.68 l -0.05,-0.04 c -27.51,-7.61 -54.86,-15.18 -82.01,-22.68 m 271.71,75.23 -0.01,0.02 c 10.67,2.95 21.47,5.95 32.16,8.91 l 0.01,-0.01 c -10.74,-2.98 -21.43,-5.95 -32.16,-8.92"
         style="fill:#f9f9f9;fill-opacity:1;fill-rule:nonzero;stroke:none"
         id="path196" />
      <path
         d="m 1466.47,2079.62 c 0.02,0.03 0.04,0.06 0.06,0.08 26.96,11.4 47.5,18.27 58.77,19.31 2.34,0.24 7.94,1.39 16.58,3.42 0.06,0 0.13,0 0.19,-0.01 -8.72,-2.04 -14.38,-3.21 -16.72,-3.45 -11.29,-1.05 -31.87,-7.93 -58.88,-19.35"
         style="fill:#fbcba1;fill-opacity:1;fill-rule:nonzero;stroke:none"
         id="path198" />
      <path
         d="m 1183.59,1926.43 c -0.01,0.01 -0.01,0.02 -0.01,0.03 28.68,18.16 57.82,35.74 86.44,52.3 0.04,0.01 0.07,0.02 0.11,0.02 -28.65,-16.57 -57.83,-34.17 -86.54,-52.35"
         style="fill:#758288;fill-opacity:1;fill-rule:nonzero;stroke:none"
         id="path200" />
      <path
         d="m 1173.49,1920 c -0.01,0.01 -0.02,0.01 -0.04,0.01 3.37,2.16 6.75,4.31 10.13,6.45 0,-0.01 0,-0.02 0.01,-0.03 -3.37,-2.13 -6.75,-4.28 -10.1,-6.43"
         style="fill:#707b80;fill-opacity:1;fill-rule:nonzero;stroke:none"
         id="path202" />
      <path
         d="m 1604.99,2087.48 c 42.92,11.08 102.03,26.79 173.35,45.99 l 0.02,-0.01 c -71.32,-19.2 -130.44,-34.9 -173.37,-45.98 m 207.04,55.05 -0.02,0.02 c 162.57,43.91 379.87,103.52 612.7,167.76 v -0.04 c -232.73,-64.21 -450.15,-123.85 -612.68,-167.74 m 615.18,168.43 v 0.04 c 19.18,5.29 38.41,10.6 57.77,15.95 l -0.1,-0.07 c -19.33,-5.34 -38.52,-10.64 -57.67,-15.92 m 139.63,38.56 0.1,0.07 c 93.14,25.75 187.4,51.86 280.46,77.66 l 0.03,-0.03 c -93.11,-25.82 -187.4,-51.93 -280.59,-77.7 m 312.74,86.62 -0.03,0.03 c 309.48,85.85 602.11,167.37 789.56,219.65 h -0.01 v 0 c -187.38,-52.29 -480.08,-133.85 -789.52,-219.68"
         style="fill:#ffffff;fill-opacity:1;fill-rule:nonzero;stroke:none"
         id="path204" />
      <path
         d="m 2424.71,2310.27 v 0.04 c 0.81,0.22 1.69,0.47 2.5,0.69 v -0.04 c -0.85,-0.24 -1.66,-0.46 -2.5,-0.69"
         style="fill:#f6f7f7;fill-opacity:1;fill-rule:nonzero;stroke:none"
         id="path206"
         sodipodi:nodetypes="ccccc" />
      <path
         d="m 1778.36,2133.46 -0.02,0.01 c 10.94,2.95 22.17,5.97 33.67,9.08 l 0.02,-0.02 c -11.53,-3.11 -22.71,-6.12 -33.67,-9.07 m 706.52,193.42 0.1,0.07 c 27.14,7.49 54.56,15.07 81.96,22.64 l -0.1,-0.07 c -27.42,-7.58 -54.8,-15.14 -81.96,-22.64 m 362.55,100.34 -0.03,0.03 c 10.72,2.98 21.46,5.96 32.15,8.92 l 0.03,-0.03 c -10.71,-2.97 -21.4,-5.94 -32.15,-8.92"
         style="fill:#f9f9f9;fill-opacity:1;fill-rule:nonzero;stroke:none"
         id="path208" />
      <path
         d="m 716.898,735.711 c -2.886,0 -5.769,0.82 -8.261,2.437 -1.227,0.813 -2.352,1.813 -3.328,3 -3.086,3.762 -4.043,8.571 -3.012,12.961 0.398,1.68 1.082,3.289 2.043,4.77 0.812,1.25 1.832,2.391 3.043,3.391 29.996,24.621 54.492,51.761 74.484,80.921 91.293,133.051 88.676,308.129 86.133,478.529 -0.426,27.6 -0.84,54.95 -0.836,81.8 0.02,49.02 1.438,96.41 6.766,140.94 6.316,52.75 18.133,101.45 39.633,143.96 6.828,13.48 14.625,26.33 23.539,38.49 15.246,20.86 37.277,43.5 63.998,66.99 3.91,3.43 7.92,6.89 12.02,10.35 36.11,30.53 79.49,62.23 125.59,93.02 11.45,7.65 23.06,15.23 34.78,22.73 v 0 c 3.35,2.15 6.73,4.3 10.1,6.43 28.71,18.18 57.89,35.78 86.54,52.35 23.03,13.33 45.69,25.96 67.51,37.71 10.26,5.53 20.34,10.86 30.16,15.96 23.67,12.28 45.91,23.27 65.97,32.6 5.5,2.56 10.85,5 16,7.3 5.8,2.59 11.38,5.02 16.7,7.27 27.01,11.42 47.59,18.3 58.88,19.35 2.34,0.24 8,1.41 16.72,3.45 32.32,7.58 106.74,27.13 211.41,55.3 10.89,2.93 22.14,5.96 33.67,9.07 162.7,43.94 387.88,105.7 637.56,174.6 0.88,0.25 1.61,0.45 2.5,0.69 38.69,10.68 78.12,21.57 117.84,32.55 0.84,0.24 1.65,0.46 2.5,0.69 2.05,0.57 4,1.11 6.05,1.68 27.15,7.5 54.5,15.07 82.01,22.68 62.56,17.31 126.04,34.9 189.7,52.55 10.73,2.97 21.42,5.94 32.16,8.92 234.75,65.1 472.18,131.16 686.2,190.82 60.2,16.78 118.52,33.05 174.43,48.65 6.88,1.92 13.72,3.83 20.52,5.73 v 0 c -6.8,-1.9 -13.64,-3.81 -20.52,-5.73 -18.5,-13.5 -35.69,-28.6 -48.99,-44.8 -187.45,-52.28 -480.08,-133.8 -789.56,-219.65 -10.69,-2.96 -21.43,-5.94 -32.15,-8.92 -93.06,-25.8 -187.32,-51.91 -280.46,-77.66 -27.4,-7.57 -54.82,-15.15 -81.96,-22.64 -19.36,-5.35 -38.59,-10.66 -57.77,-15.95 -0.81,-0.22 -1.69,-0.47 -2.5,-0.69 -232.83,-64.24 -450.13,-123.85 -612.7,-167.76 -11.5,-3.11 -22.73,-6.13 -33.67,-9.08 -71.32,-19.2 -130.43,-34.91 -173.35,-45.99 -43.78,-11.3 -70.77,-17.8 -76.89,-18.36 -58.43,-5.42 -458.91,-222.35 -562.35,-354.03 -1.559,-1.99 -3.039,-3.94 -4.461,-5.88 -36.961,-50.51 -53.109,-116.09 -59.789,-189.86 0,-0.01 0,-0.01 -0.004,-0.03 -1.269,-14.06 -2.199,-28.41 -2.863,-43.01 -0.418,-9.25 -0.731,-18.6 -0.957,-28.03 v 0 c -0.981,-40.71 -0.352,-83.06 0.289,-126.09 2.082,-139.98 4.348,-292.73 -51.266,-422.069 -0.363,-0.84 -0.719,-1.66 -1.086,-2.5 -11.953,-27.359 -26.539,-53.68 -44.281,-78.57 -20.469,-28.692 -45.168,-55.52 -74.93,-79.942 -2.804,-2.289 -6.097,-3.398 -9.504,-3.398"
         style="fill:#758288;fill-opacity:1;fill-rule:nonzero;stroke:none"
         id="path210" />
      <path
         d="m 3669.1,2655.82 h 0.01 c 7.43,2.08 14.65,4.09 21.74,6.07 -7.08,-1.98 -14.33,-4 -21.75,-6.07 m 69.52,50.53 c 20.91,5.85 41.46,11.59 61.61,17.21 v 0 c -20.16,-5.63 -40.7,-11.37 -61.61,-17.21"
         style="fill:#cecdcb;fill-opacity:1;fill-rule:nonzero;stroke:none"
         id="path212" />
      <path
         d="m 3669.11,2655.82 c 13.3,16.2 30.49,31.3 48.99,44.8 6.88,1.92 13.72,3.83 20.52,5.73 20.91,5.84 41.45,11.58 61.61,17.21 0.44,-0.26 0.9,-0.5 1.38,-0.72 -5.1,-11.04 -10.46,-22.53 -16.12,-34.53 -26.6,-7.43 -58.39,-16.3 -94.64,-26.42 -7.09,-1.98 -14.31,-3.99 -21.74,-6.07"
         style="fill:#59656a;fill-opacity:1;fill-rule:nonzero;stroke:none"
         id="path214" />
      <path
         d="m 819.082,1767.66 78.66,6.85 c 0,0 41.012,25.96 48.973,24.34 7.965,-1.63 86.225,-39.76 86.225,-39.76 0,0 -35.557,-45.62 -41.413,-55.18 -5.851,-9.55 -76.644,35.33 -76.644,35.33 l -77.875,-8.3 -17.926,36.72"
         style="fill:#f9a95e;fill-opacity:1;fill-rule:nonzero;stroke:none"
         id="path216" />
      <path
         d="m 716.949,1959.45 c -35.726,-25.55 -128.761,-233.39 -118.886,-265.54 9.871,-32.15 299.308,31.19 299.308,31.19 l -12.769,54.16 H 728.855 l 37.043,58.31 c 0,0 22.813,22.22 8.774,73.84 -10.109,37.17 -57.723,48.04 -57.723,48.04"
         style="fill:#1d2a30;fill-opacity:1;fill-rule:nonzero;stroke:none"
         id="path218" />
      <path
         d="m 3732.09,1938.57 -59.28,28.04 c 0,0 -29.64,57.45 -38.76,66.57 -9.12,9.12 -51.3,-26.48 -51.3,-32.62 0,-6.14 30.78,-64.28 38.76,-67.7 7.98,-3.42 35.91,0 35.91,0 l 56.43,-27.32 18.24,33.03"
         style="fill:#b2494a;fill-opacity:1;fill-rule:nonzero;stroke:none"
         id="path220" />
      <path
         d="m 3870.55,2294.19 11.87,42.52 c 0,0 18.79,55.39 16.81,68.25 -1.98,12.85 -14.27,44.47 -14.27,44.47 0,0 -51.99,-63.26 -51.99,-71.18 0,-7.91 20.67,-36.59 20.67,-36.59 l -9.79,-47.47 h 26.7"
         style="fill:#b2494a;fill-opacity:1;fill-rule:nonzero;stroke:none"
         id="path222" />
      <path
         d="m 3916.19,1977.66 c 0,0 -44.75,55.71 -58,107.5 -13.24,51.79 26.71,220.33 26.71,220.33 l -42.12,11.22 c 0,0 -49.59,-172.09 -51.66,-234.92 -2.06,-62.83 91.66,-247.05 91.66,-247.05 l 33.41,142.92"
         style="fill:#4870c0;fill-opacity:1;fill-rule:nonzero;stroke:none"
         id="path224" />
      <path
         d="m 3859.8,1882.16 c -0.87,1.86 -1.76,3.77 -2.66,5.71 0.9,-1.94 1.79,-3.84 2.66,-5.71 v 0 m -26.21,58.6 c -3.17,7.45 -6.31,15.02 -9.38,22.62 l 0.01,-0.01 c 3.06,-7.59 6.21,-15.16 9.37,-22.61"
         style="fill:#c5c4c2;fill-opacity:1;fill-rule:nonzero;stroke:none"
         id="path226" />
      <path
         d="m 3859.8,1882.16 c -0.87,1.87 -1.76,3.77 -2.66,5.71 -7.32,15.77 -15.5,33.94 -23.55,52.89 -3.16,7.45 -6.31,15.02 -9.37,22.61 16.99,-12.06 34.93,-29.89 48.73,-55.82 -4.52,-8.37 -8.9,-16.84 -13.15,-25.39"
         style="fill:#395eb4;fill-opacity:1;fill-rule:nonzero;stroke:none"
         id="path228" />
      <path
         d="m 4153.44,1855.88 c -0.36,-10.2 -1.91,-21.76 -4.27,-34.59 -4.56,-24.94 -12.38,-54.43 -21.3,-86.92 -4.74,-17.12 -9.56,-35.41 -14.57,-54.71 -22.3,-86.75 -34.4,-121.24 -50.88,-231.93 l -316.49,75.09 c 0,0 22.12,135.9 77.82,277.53 9.29,23.85 19.67,47.8 30.95,71.37 17.94,37.31 38.42,73.46 61.54,105.95 0,0 51.15,-46.79 211.99,-74.82 19.48,-3.37 26.21,-20.3 25.21,-46.97"
         style="fill:#4870c0;fill-opacity:1;fill-rule:nonzero;stroke:none"
         id="path230" />
      <path
         d="m 3823.75,1800.35 c 0.03,0.06 0.05,0.12 0.07,0.18 -0.02,-0.06 -0.04,-0.12 -0.07,-0.18"
         style="fill:#c5c4c2;fill-opacity:1;fill-rule:nonzero;stroke:none"
         id="path232" />
      <path
         d="m 3981.93,1774.98 c -64.08,-0.01 -123.24,14.61 -158.18,25.37 v 0 c 0.03,0.06 0.05,0.12 0.07,0.18 9.32,23.88 29.56,67.67 40.82,91.19 l 75.11,-16.66 c 0,0 6.32,1.44 16.7,3.53 4.19,-21.58 15.93,-39.83 35.89,-43.11 1.78,-0.29 3.54,-0.43 5.28,-0.43 14.26,0 27.23,9.42 38.57,22.56 l 57.58,36.54 c 7.35,-0.37 14.05,-1.15 19.82,-2.43 -0.36,-10.2 37.94,-57.6 35.58,-70.43 v 0 0 c -4.28,-2.91 -9.38,-6.09 -15.21,-9.55 -47.33,-27.57 -101.23,-36.76 -152.03,-36.76"
         style="fill:#395eb4;fill-opacity:1;fill-rule:nonzero;stroke:none"
         id="path234" />
      <path
         d="m 3984.88,1958.52 c 11.47,4.36 105.92,-19.13 98.9,-21.15 -7.01,-2.02 -42.15,-109.99 -91.44,-101.89 -49.29,8.1 -48.46,107.43 -7.46,123.04"
         style="fill:#4870c0;fill-opacity:1;fill-rule:nonzero;stroke:none"
         id="path236" />
      <path
         d="m 3557.54,188.98 -59.44,-12.851 -34.67,136.633 59.51,12.867 34.6,-136.649"
         style="fill:#b2494a;fill-opacity:1;fill-rule:nonzero;stroke:none"
         id="path238" />
      <path
         d="m 3483.28,200.91 h 73.88 c 2.49,-0.012 4.65,-1.75 5.19,-4.18 l 11.99,-54.152 c 1.03,-4.836 -2.07,-9.609 -6.92,-10.637 l -1.98,-0.191 c -23.9,0.391 -41.31,1.852 -71.32,1.852 -18.49,0 -74.27,-1.93 -99.8,-1.93 -25.53,0 -28.86,25.226 -18.41,27.539 46.88,10.211 82.15,24.371 97.16,37.828 2.78,2.551 6.44,3.941 10.21,3.871"
         style="fill:#1d2a30;fill-opacity:1;fill-rule:nonzero;stroke:none"
         id="path240" />
      <path
         d="m 3454.12,202.84 -1.86,-0.379 c -0.38,0 -0.85,-0.551 -0.93,-1.711 -0.24,-1.93 0.48,-3.871 1.94,-5.168 6.82,-3.102 14.56,-3.492 21.66,-1.094 -6.34,4.094 -13.41,6.934 -20.81,8.352 z m 9.05,-12.598 c -4.13,-0.344 -8.25,0.758 -11.68,3.09 -2.28,1.879 -3.42,4.809 -3.02,7.738 -0.04,1.7 0.93,3.289 2.48,4.02 6.73,3.48 26.38,-8.59 28.54,-9.981 l 0.7,-1.398 -1.08,-1.231 c -5.22,-1.339 -10.56,-2.089 -15.94,-2.238"
         style="fill:#4870c0;fill-opacity:1;fill-rule:nonzero;stroke:none"
         id="path242" />
      <path
         d="m 3466.49,217.082 h -0.69 c -1.85,0 -2.01,-1.082 -2.09,-1.473 -0.77,-3.949 6.96,-14.089 13.23,-18.8 -0.41,6.933 -2.92,13.562 -7.19,19.031 -0.9,0.789 -2.05,1.23 -3.26,1.242 z m 12.23,-24.684 h -0.7 c -6.26,3.403 -18.41,16.793 -17.17,23.211 0.44,2.211 2.39,3.801 4.64,3.789 2.21,0.293 4.44,-0.386 6.11,-1.859 7.04,-5.719 8.51,-23.199 8.59,-24.051 l -0.7,-1.316 -0.77,0.226"
         style="fill:#4870c0;fill-opacity:1;fill-rule:nonzero;stroke:none"
         id="path244" />
      <path
         d="m 4064.97,1439.08 c 0,0 -51.25,-244.58 -171.31,-310.3 -13.84,-7.65 -28.67,-12.83 -44.42,-15.02 0,0 -121.7,-49.7 -226.92,-97.3 -63.99,-28.948 -121.88,-57.159 -142.63,-72.901 -54.8,-41.789 79.46,-692.7 79.46,-692.7 l -91.3,-1.089 c 0,0 -191.88,576.449 -159.47,727.73 32.4,151.28 376.29,382.94 376.29,382.94 l 53.07,145.73 327.23,-67.09"
         style="fill:#1d2a30;fill-opacity:1;fill-rule:nonzero;stroke:none"
         id="path246" />
      <path
         d="m 3622.32,1016.46 c 67.72,124.43 188.42,205.35 188.42,205.35 l 82.92,-93.03 c -7.69,-4.25 -15.69,-7.74 -23.99,-10.38 -6.62,-2.11 -13.43,-3.67 -20.43,-4.64 0,0 -18.31,-7.48 -46.87,-19.41 -45.06,-18.83 -115.64,-48.75 -180.05,-77.89"
         style="fill:#182124;fill-opacity:1;fill-rule:nonzero;stroke:none"
         id="path248" />
      <path
         d="m 4322.13,188.98 -59.43,-12.851 -34.67,136.633 59.51,12.867 34.59,-136.649"
         style="fill:#b2494a;fill-opacity:1;fill-rule:nonzero;stroke:none"
         id="path250" />
      <path
         d="m 4247.88,200.91 h 73.88 c 2.49,-0.012 4.64,-1.75 5.18,-4.18 l 12,-54.152 c 1.02,-4.836 -2.07,-9.609 -6.92,-10.637 l -1.98,-0.191 c -23.9,0.391 -41.31,1.852 -71.33,1.852 -18.49,0 -74.26,-1.93 -99.79,-1.93 -25.53,0 -28.86,25.226 -18.42,27.539 46.89,10.211 82.16,24.371 97.17,37.828 2.78,2.551 6.44,3.941 10.21,3.871"
         style="fill:#1d2a30;fill-opacity:1;fill-rule:nonzero;stroke:none"
         id="path252" />
      <path
         d="m 4218.72,202.84 -1.86,-0.379 c -0.39,0 -0.85,-0.551 -0.93,-1.711 -0.24,-1.93 0.48,-3.871 1.94,-5.168 6.82,-3.102 14.56,-3.492 21.66,-1.094 -6.34,4.094 -13.41,6.934 -20.81,8.352 z m 9.05,-12.598 c -4.13,-0.344 -8.26,0.758 -11.68,3.09 -2.29,1.879 -3.43,4.809 -3.02,7.738 -0.04,1.7 0.93,3.289 2.48,4.02 6.73,3.48 26.37,-8.59 28.54,-9.981 l 0.7,-1.398 -1.08,-1.231 c -5.22,-1.339 -10.57,-2.089 -15.94,-2.238"
         style="fill:#4870c0;fill-opacity:1;fill-rule:nonzero;stroke:none"
         id="path254" />
      <path
         d="m 4231.09,217.082 h -0.69 c -1.86,0 -2.01,-1.082 -2.09,-1.473 -0.78,-3.949 6.96,-14.089 13.23,-18.8 -0.41,6.933 -2.92,13.562 -7.19,19.031 -0.9,0.789 -2.06,1.23 -3.26,1.242 z m 12.23,-24.684 h -0.7 c -6.26,3.403 -18.41,16.793 -17.17,23.211 0.44,2.211 2.39,3.801 4.64,3.789 2.21,0.293 4.44,-0.386 6.11,-1.859 7.04,-5.719 8.51,-23.199 8.59,-24.051 l -0.7,-1.316 -0.77,0.226"
         style="fill:#4870c0;fill-opacity:1;fill-rule:nonzero;stroke:none"
         id="path256" />
      <path
         d="m 4085.49,1906.67 c -14.94,-9.64 -83.54,-6.16 -83.54,-6.16 l -32.35,-34.82 -3.05,57.68 c 0,0 -21.53,8.97 -15.68,15.19 19.52,0 32.62,5.29 41.4,13.87 13.93,13.63 16.66,35.45 16.47,57.19 l -0.02,0.79 0.09,0.06 58.74,30.09 40.52,20.84 c -18.73,-41.37 -46.04,-118.64 -22.58,-154.73"
         style="fill:#b2494a;fill-opacity:1;fill-rule:nonzero;stroke:none"
         id="path258" />
      <path
         d="m 3992.27,1952.43 c 13.5,13.2 16.48,34.09 16.48,55.16 0,0.68 0,1.35 -0.01,2.03 l 0.07,0.85 58.74,30.09 c -0.08,-8.07 22.61,-6.47 19.65,-13.98 -19.44,-49.02 -70.25,-70.91 -94.93,-74.15"
         style="fill:#8c3939;fill-opacity:1;fill-rule:nonzero;stroke:none"
         id="path260" />
      <path
         d="m 4124.47,2028.62 c 0,0 38.16,-20.4 50.86,3.88 12.7,24.28 -5.39,25.28 13.22,33.88 18.61,8.6 45.31,14.65 39.21,32.75 -6.1,18.11 -24.95,20.31 -3.96,39.64 20.99,19.33 25.64,48.29 -5.79,53.75 -31.43,5.44 -19.43,29.64 -21.04,40.34 -1.62,10.7 -19.22,16.98 -38.32,13 -19.1,-3.99 -27.07,24.27 -38.84,33.1 -11.76,8.82 -28.14,-2.06 -32.39,-13.99 -4.27,-11.92 -15.59,3.99 -32.46,5.93 -16.88,1.95 -12.84,-15.68 -18.11,-32.19 -5.26,-16.5 -15.48,-5.75 -27.48,-19.35 -12,-13.6 -13.08,-106.43 115.1,-190.74"
         style="fill:#1d2a30;fill-opacity:1;fill-rule:nonzero;stroke:none"
         id="path262" />
      <path
         d="m 4141.06,2085.61 c -28.62,-45.03 -44.92,-74.73 -77.12,-89.29 -4.14,-1.9 -8.59,-3.57 -13.44,-4.98 -62.62,-18.41 -114.16,41.88 -97.65,101.55 2.79,9.97 6.85,20.63 11.97,31.38 22.34,46.95 65.52,94.97 116.97,88.64 45.23,-5.22 77.62,-46.03 72.4,-91.25 -1.5,-12.88 -6,-25.21 -13.13,-36.05"
         style="fill:#b2494a;fill-opacity:1;fill-rule:nonzero;stroke:none"
         id="path264" />
      <path
         d="m 4052.99,2115.37 c -2.07,-4.41 -6.55,-6.5 -9.4,-4.91 -2.84,1.59 -3.1,6.32 -0.75,10.61 2.35,4.28 6.62,6.46 9.39,4.91 2.77,-1.56 3.14,-6.26 0.76,-10.61"
         style="fill:#1d2a30;fill-opacity:1;fill-rule:nonzero;stroke:none"
         id="path266" />
      <path
         d="m 4004.54,2142.34 c -2.06,-4.41 -6.62,-6.47 -9.39,-4.91 -2.77,1.56 -3.1,6.33 -0.76,10.61 2.35,4.28 6.63,6.46 9.4,4.91 2.77,-1.56 3,-6.53 0.75,-10.61"
         style="fill:#1d2a30;fill-opacity:1;fill-rule:nonzero;stroke:none"
         id="path268" />
      <path
         d="m 4018.76,2131.67 c -12.4,-10.27 -26.16,-18.77 -40.88,-25.27 3.58,-7.58 10.34,-13.19 18.45,-15.32 l 22.43,40.59"
         style="fill:#9e2123;fill-opacity:1;fill-rule:nonzero;stroke:none"
         id="path270" />
      <path
         d="m 4081.98,2126.77 c -1.07,-0.13 -2.13,0.32 -2.77,1.18 -4.17,6.02 -10.93,9.72 -18.25,9.99 -1.58,-0.09 -2.93,1.12 -3.02,2.7 -0.08,1.58 1.13,2.93 2.71,3.01 h 0.01 c 9.27,-0.09 17.9,-4.67 23.18,-12.29 0.96,-1.25 0.74,-3.05 -0.52,-4.02 l -0.05,-0.04 -1.29,-0.53"
         style="fill:#1d2a30;fill-opacity:1;fill-rule:nonzero;stroke:none"
         id="path272" />
      <path
         d="m 4007.96,2064.33 v 0 c 13.7,-4.47 28.71,-1.98 40.23,6.67 l 0.17,2.16 -2.06,0.24 -0.08,-0.07 c -10.82,-7.79 -24.68,-10.02 -37.39,-6.02 l -1.88,-0.9 -0.04,-0.16 0.9,-1.87 0.15,-0.05"
         style="fill:#1d2a30;fill-opacity:1;fill-rule:nonzero;stroke:none"
         id="path274" />
      <path
         d="m 4000.22,2183.81 -0.13,1.7 c 0.66,1.44 2.36,2.07 3.8,1.4 l 0.06,-0.02 c 8.47,-3.81 14.55,-11.51 16.31,-20.63 0.21,-1.57 -0.89,-3.01 -2.46,-3.22 h -0.01 c -1.56,-0.16 -2.98,0.92 -3.21,2.47 -1.6,7.16 -6.49,13.15 -13.18,16.14 l -1.18,2.16"
         style="fill:#1d2a30;fill-opacity:1;fill-rule:nonzero;stroke:none"
         id="path276" />
      <path
         d="m 4041.2,2208.72 c 14.57,-1.81 21.81,-19.56 21.81,-19.56 0,0 35.65,-13.33 50.98,-23.89 15.33,-10.57 12.39,-29.47 11.83,-34.27 -0.57,-4.81 -12.28,-9.17 -12.28,-9.17 0,0 -21.66,-50.97 -27.53,-65.13 l 2.96,-47.04 c 0,0 57.6,32.19 91.73,103.23 34.13,71.03 -108.19,133.49 -108.19,133.49 l -31.31,-37.66"
         style="fill:#1d2a30;fill-opacity:1;fill-rule:nonzero;stroke:none"
         id="path278" />
      <path
         d="m 4132.53,2014.37 c -13.33,-7.28 -28.99,-8.97 -43.56,-4.71 -19.25,5.77 -18.16,25.59 -3.88,38.21 12.8,11.09 38.48,21.96 53.41,9.15 14.93,-12.81 10.27,-33.52 -5.97,-42.65"
         style="fill:#b2494a;fill-opacity:1;fill-rule:nonzero;stroke:none"
         id="path280" />
      <path
         d="m 4083.78,1937.37 -79.52,-22.89 -34.27,-46.42 9.35,56.85 c 0,0 -8.58,13.13 5.54,33.61 l -48.41,-9.98 -29.2,-48.87 56.79,13.39 3.99,-56.75 33.05,38.99 27.12,-42.75 80.54,51.1 -24.98,33.72"
         style="fill:#4870c0;fill-opacity:1;fill-rule:nonzero;stroke:none"
         id="path282" />
      <path
         d="m 4028.22,1852.55 -27.12,42.75 -33.05,-38.99 -3.99,56.75 -8.43,-1.99 -48.36,-11.4 29.2,48.87 48.41,9.98 c -6.37,-9.24 -8.12,-16.99 -8.12,-22.7 0,-6.95 2.58,-10.91 2.58,-10.91 l -9.35,-56.85 34.27,46.42 79.52,22.89 24.98,-33.72 -72.57,-46.04 -7.97,-5.06"
         style="fill:#395eb4;fill-opacity:1;fill-rule:nonzero;stroke:none"
         id="path284" />
      <path
         d="m 3750.12,1555.57 -12.42,-49.4 327.22,-67.09 4.85,54.91 -319.65,61.58"
         style="fill:#100f0d;fill-opacity:1;fill-rule:nonzero;stroke:none"
         id="path286" />
      <path
         d="m 3876.2,1480.18 c -5.39,1.1 -63.64,9.27 -65.61,13.44 -1.98,4.18 9.65,44.22 9.65,44.22 5.64,4.27 65.46,-8.6 67.6,-11.61 2.14,-3.02 -6.24,-47.17 -11.64,-46.05 z m 19.97,49.59 c -2.6,3.66 -75.39,19.31 -82.25,14.13 0,0 -14.15,-48.73 -11.75,-53.81 2.41,-5.08 73.27,-15.02 79.84,-16.37 6.56,-1.35 16.76,52.37 14.16,56.05"
         style="fill:#ffffff;fill-opacity:1;fill-rule:nonzero;stroke:none"
         id="path288" />
      <path
         d="m 3878.95,1513.13 -14.41,2.95 c -2.74,0.56 -5.46,-1.07 -6.25,-3.75 l -0.07,-0.22 c -0.91,-3.07 1.03,-6.24 4.17,-6.83 l 14.48,-2.73 c 3.04,-0.58 5.93,1.52 6.34,4.59 0.37,2.8 -1.49,5.42 -4.26,5.99"
         style="fill:#ffffff;fill-opacity:1;fill-rule:nonzero;stroke:none"
         id="path290" />
      <path
         d="m 4064.92,1439.08 c 0,0 6.27,-370.16 -4.11,-477.978 -10.38,-107.813 258.92,-699.082 258.92,-699.082 h -87.35 c 0,0 -264.46,432.789 -325.11,566.031 -60.65,133.23 -105.38,450.939 -105.38,450.939 l 263.03,160.09"
         style="fill:#1d2a30;fill-opacity:1;fill-rule:nonzero;stroke:none"
         id="path292" />
      <path
         d="m 4154.55,1881.63 c -13.52,30.57 -220.83,-14.75 -239.54,-9.41 -18.72,5.33 -213.34,86.83 -213.34,86.83 l -16.84,-43.65 c 0,0 174.52,-100.09 212.64,-115.75 38.13,-15.67 190.94,-8.18 229.62,8.66 38.68,16.84 35.37,55.42 27.46,73.32"
         style="fill:#4870c0;fill-opacity:1;fill-rule:nonzero;stroke:none"
         id="path294" />
      <path
         d="m 4117.83,2676.36 -62.81,400.28 -330.79,-233.97 110.28,-46.6 C 3728.28,2552.68 3383.77,1839.59 2791.04,1313.8 2033.77,642.051 974.395,311.641 963.781,308.379 L 1022.42,117.16 c 44.97,13.801 1110.77,345.731 1901.34,1047.01 629.96,558.83 984.24,1295.88 1095.4,1553.88 l 98.67,-41.69"
         style="fill:#95c594;fill-opacity:1;fill-rule:nonzero;stroke:none"
         id="path296" />
      <path
         d="m 982.418,187.16 -18.637,121.219 v 0 l 35.617,-116.16 c -8.718,-2.598 -14.457,-4.289 -16.98,-5.059"
         style="fill:#ffffff;fill-opacity:1;fill-rule:nonzero;stroke:none"
         id="path298" />
      <path
         d="m 999.398,192.219 -35.617,116.16 c 7.559,2.32 547.149,170.613 1130.649,509.961 55.61,-25.879 116.89,-51.481 161.06,-69.379 C 1669.08,397.691 1107,224.398 999.398,192.219 M 2388.79,831.738 c -32.03,22.774 -79.36,54.442 -128.86,86.953 182.09,115.179 363.93,246.809 531.11,395.109 400.48,355.25 687.66,796.04 864.58,1119.65 l 207.97,123.35 C 3700.5,2215.23 3386.15,1649.83 2883.76,1204.17 2726.26,1064.46 2557.89,940.629 2388.79,831.738 M 3683.26,2484.73 c 49.21,92.55 88.63,173.7 118.35,238.11 0.53,-0.24 1.07,-0.45 1.64,-0.64 l 118.98,-38.43 c -10.79,-24.16 -22.72,-50.42 -35.82,-78.56 l -203.15,-120.48 m 251.21,226.61 -120.35,38.88 c 7.56,16.72 14.36,32.04 20.39,45.85 v 0 0 l -110.28,46.6 330.79,233.97 2.81,-330.28 -98.67,21.69 c -7.27,-16.88 -15.49,-35.84 -24.69,-56.71"
         style="fill:#c5e18f;fill-opacity:1;fill-rule:nonzero;stroke:none"
         id="path300" />
      <path
         d="m 4000.02,2659.4 c -1.53,0 -3.09,0.23 -4.61,0.73 l -192.16,62.07 c -7.88,2.55 -12.21,11 -9.66,18.89 2.54,7.88 11.02,12.22 18.88,9.66 l 192.15,-62.08 c 7.89,-2.54 12.22,-11 9.67,-18.88 -2.05,-6.35 -7.94,-10.39 -14.27,-10.39"
         style="fill:#1d2a30;fill-opacity:1;fill-rule:nonzero;stroke:none"
         id="path302" />
      <path
         d="m 4004.65,2660.13 c -2.91,3.72 -7.32,5.76 -11.83,5.76 -2.61,0 -5.24,-0.68 -7.64,-2.1 l -0.39,-0.23 -62.56,20.21 -118.98,38.43 c -0.57,0.19 -1.11,0.4 -1.64,0.64 -5.39,2.46 -8.74,7.85 -8.75,13.61 0,1.53 0.23,3.1 0.73,4.64 2.05,6.34 7.94,10.39 14.26,10.39 1.53,0 3.09,-0.23 4.62,-0.73 l 192.15,-62.08 c 6.35,-2.04 10.39,-7.92 10.4,-14.24 0,-1.54 -0.24,-3.1 -0.73,-4.64 -1.54,-4.76 -5.23,-8.22 -9.64,-9.66"
         style="fill:#758288;fill-opacity:1;fill-rule:nonzero;stroke:none"
         id="path304" />
      <path
         d="m 1699.33,787.41 c -8.29,0 -15,6.719 -15,15 0,477.38 138.66,540.17 164.69,547.73 l 441.4,308.45 0.94,0.61 1693.82,1004.59 c 7.12,4.23 16.32,1.88 20.55,-5.25 4.23,-7.12 1.88,-16.33 -5.25,-20.55 L 2307.14,1633.68 1863.95,1323.98 c -1.86,-1.3 -3.98,-2.16 -6.21,-2.51 -1.13,-0.25 -143.41,-35.08 -143.41,-519.06 0,-8.281 -6.71,-15 -15,-15"
         style="fill:#1d2a30;fill-opacity:1;fill-rule:nonzero;stroke:none"
         id="path306" />
      <path
         d="m 1699.33,787.41 c -8.29,0 -15,6.719 -15,15 0,235.11 33.63,369.65 70.88,446.57 3.23,1.65 6.39,3.31 9.47,4.94 4.85,-7.45 9.76,-15.21 14.71,-23.29 -9.81,-21.06 -19.44,-46.93 -28.17,-78.73 -11.44,-41.7 -21.33,-93.58 -27.98,-158.048 -5.61,-54.364 -8.91,-117.68 -8.91,-191.442 0,-8.281 -6.71,-15 -15,-15 m 289.82,624.05 c -4.47,9.12 -9.11,18.09 -13.94,26.86 l 315.21,220.27 0.94,0.61 1693.82,1004.59 c 2.4,1.42 5.03,2.1 7.64,2.1 5.12,0 10.11,-2.62 12.91,-7.35 1.42,-2.39 2.1,-5.02 2.1,-7.62 0.01,-5.12 -2.62,-10.13 -7.35,-12.93 l -136.89,-81.19 -207.97,-123.35 -109.21,-64.77 -7.7,-4.56 -255.12,-151.32 -8.54,-5.06 -196.36,-116.46 -67.3,-39.91 -196.37,-116.47 -67.29,-39.91 -196.36,-116.46 -67.3,-39.92 -56.86,-33.72 -2.5,-1.48 -117.57,-69.73 -19.43,-13.58 -67.3,-47.03 -231.26,-161.61"
         style="fill:#758288;fill-opacity:1;fill-rule:nonzero;stroke:none"
         id="path308" />
      <path
         d="m 1814.5,1282.81 c 0,0 -77.1,-49.69 -135.7,-65.09 -17.5,-4.7 -33.3,-6.21 -44.9,-2.5 -43.6,13.79 -17.7,98.2 8.3,151.5 4.2,8.7 8.4,16.49 12.3,23.1 l 76.2,-47.1 c 0,0 -46.2,-65.9 -40.9,-69.8 5.3,-4 76.5,35.6 80.4,36.9 4,1.29 44.3,-27.01 44.3,-27.01"
         style="fill:#4870c0;fill-opacity:1;fill-rule:nonzero;stroke:none"
         id="path310" />
      <path
         d="m 1678.8,1217.72 c -17.9,50.8 -29.7,107.8 -36.6,149 4.2,8.7 8.4,16.49 12.3,23.1 v 0 0 c 0,0 25.59,-22.49 61.76,-68.31 -11.93,-17.95 -26.91,-41.64 -26.88,-47.44 0,-0.55 0.13,-0.94 0.42,-1.15 0.25,-0.19 0.66,-0.28 1.21,-0.28 5.84,-0.01 27.53,10.56 46.76,20.43 8.65,-11.92 17.67,-24.98 26.91,-39.15 -3.08,-1.63 -6.24,-3.29 -9.47,-4.94 -24.03,-12.33 -51.85,-24.81 -76.41,-31.26 v 0"
         style="fill:#395eb4;fill-opacity:1;fill-rule:nonzero;stroke:none"
         id="path312" />
      <path
         d="m 2190.22,1573.05 45.19,40.34 c 0,0 9.68,28.24 14.52,32.27 4.84,4.04 87.15,10.49 87.15,10.49 0,0 1.61,-43.57 -4.85,-54.86 -6.45,-11.3 -73.73,-16.14 -73.73,-16.14 l -36,-34.7 -32.28,22.6"
         style="fill:#fab6b9;fill-opacity:1;fill-rule:nonzero;stroke:none"
         id="path314" />
      <path
         d="M 2430.8,625.121 C 2417.9,439.512 2383.4,176.109 2383.4,176.109 L 2339,166.32 c 0,0 -41,220.5 -34.5,425.102 1.5,46.098 5.4,91.387 12.6,133.09 0,0 -153.8,59.097 -260.6,112 -51,25.207 -91.3,49.109 -99,64.508 -23.8,47.5 84.4,159.1 84.4,159.1 3.4,-2.71 68.7,-44.31 144.7,-93.608 100.9,-65.403 220.6,-144.391 240.2,-164.102 11.4,-11.488 10.4,-84.691 4,-177.289"
         style="fill:#fab6b9;fill-opacity:1;fill-rule:nonzero;stroke:none"
         id="path316" />
      <path
         d="m 2304.5,591.422 c 1.5,46.098 5.4,91.387 12.6,133.09 v 0 0 c 0,0 -24.89,9.57 -61.61,24.449 -44.17,17.898 -105.45,43.5 -161.06,69.379 -13.06,6.082 -25.79,12.16 -37.93,18.172 l 130.1,130 c 100.9,-65.403 220.6,-144.391 240.2,-164.102 6.19,-6.238 8.72,-30.672 8.72,-66.519 0,-30.18 -1.8,-68.45 -4.72,-110.77 v 0 C 2384,608.02 2340.1,597.719 2304.5,591.422"
         style="fill:#ca9091;fill-opacity:1;fill-rule:nonzero;stroke:none"
         id="path318" />
      <path
         d="m 2084.61,1090.89 c 0,0 426.71,-245.269 484.73,-300.648 58.02,-55.402 392.78,-573.16 392.78,-573.16 l -28.19,-26.902 c 0,0 -278.07,238.672 -388.88,465.539 l -460.44,222.25 v 212.921"
         style="fill:#fab6b9;fill-opacity:1;fill-rule:nonzero;stroke:none"
         id="path320" />
      <path
         d="m 1760.43,1543.77 2.18,-1.17 c 10.14,-5.26 21.61,-10.07 34.04,-11.13 34.78,-3.06 57.15,4.76 70.03,22.1 l 0.08,0.01 c 17.84,25.82 17.44,67.07 7.63,115.5 -4.42,22.24 -10.35,41.28 -18.65,55.59 l -0.27,0.84 -1.13,1.96 c -12.18,19.89 -29.42,31.49 -54.7,33.86 -8.74,0.79 -18.5,0.57 -29.34,-0.8 -95.42,-12.33 -90.51,-172.54 -9.87,-216.76"
         style="fill:#fab6b9;fill-opacity:1;fill-rule:nonzero;stroke:none"
         id="path322" />
      <path
         d="m 1809.41,1532.21 c -4.11,0 -8.43,0.2 -12.95,0.59 -12.43,1.07 -23.71,4.54 -33.85,9.8 v 0 c 10.1,6.95 20.99,11.68 31.99,11.68 3.52,0 7.06,-0.48 10.58,-1.54 8.3,-2.5 16.48,-3.52 24.3,-3.52 13.86,0 26.58,3.21 36.83,7.03 -11.18,-15.29 -29.44,-24.04 -56.9,-24.04"
         style="fill:#ca9091;fill-opacity:1;fill-rule:nonzero;stroke:none"
         id="path324" />
      <path
         d="m 1756.2,1464.42 c -8.32,-26.76 26.03,-41.01 26.03,-41.01 59.99,19.56 73.45,49.35 73.45,49.35 -45.99,29.42 -25.74,99.33 -25.74,99.33 l -10.24,-3.96 -70.05,-7.38 c 0,0 15.85,-38.35 17.64,-46.93 l 0.06,-0.24 c 9.09,-44.84 -11.15,-49.16 -11.15,-49.16"
         style="fill:#f9a95e;fill-opacity:1;fill-rule:nonzero;stroke:none"
         id="path326" />
      <path
         d="m 1855.69,1725.3 c 0,0 14.6,-66.08 -44.71,-103.63 0,0 -17.48,-73.2 -57.37,-79.78 -54.39,-8.97 -113.34,61.96 -105.48,143.68 10.17,105.98 164.37,136.04 207.56,39.73"
         style="fill:#1d2a30;fill-opacity:1;fill-rule:nonzero;stroke:none"
         id="path328" />
      <path
         d="m 1840.37,1645.34 c -1.48,10.42 -12.31,26.75 -28.18,22.11 -16.42,-4.8 -19.94,-47.44 22.56,-50.91 6.1,-0.5 8.7,7.05 5.62,28.8"
         style="fill:#f9a95e;fill-opacity:1;fill-rule:nonzero;stroke:none"
         id="path330" />
      <path
         d="M 2943.52,248.949 2897.5,213.48 c -1.95,-1.531 -2.59,-4.199 -1.54,-6.449 l 23.44,-49.949 c 2.14,-4.441 7.47,-6.312 11.91,-4.172 l 1.68,1.051 c 18.6,14.809 19.22,17.141 42.87,35.371 14.57,11.227 59.7,43.578 79.81,59.09 20.12,15.508 7.43,37.387 -2.21,32.879 -43.15,-20.422 -79.54,-30.692 -99.54,-29.199 -3.74,0.32 -7.46,-0.813 -10.4,-3.153"
         style="fill:#1d2a30;fill-opacity:1;fill-rule:nonzero;stroke:none"
         id="path332" />
      <path
         d="m 2955.61,253.91 c 7.05,2.418 12.91,7.43 16.41,14.012 0.35,1.91 -0.25,3.879 -1.62,5.25 l -1.77,0.789 -1.7,-0.832 c -4.97,-5.617 -8.81,-12.149 -11.32,-19.219 z m -2.07,-4.121 -1.61,0.32 -0.29,1.512 c 0.86,2.41 9.01,23.859 16.43,25.211 1.66,0.359 3.39,-0.301 4.39,-1.672 2.1,-2.058 2.98,-5.058 2.33,-7.93 -1.29,-3.921 -3.88,-7.289 -7.33,-9.531 -4.33,-3.148 -9,-5.789 -13.92,-7.91"
         style="fill:#4870c0;fill-opacity:1;fill-rule:nonzero;stroke:none"
         id="path334" />
      <path
         d="m 2946.72,273.879 c -0.05,-6.91 2.01,-13.649 5.89,-19.367 2.07,7.527 2.01,20.218 -0.99,22.847 -0.3,0.262 -1.08,1.02 -2.54,-0.097 l -0.55,-0.43 c -0.94,-0.742 -1.58,-1.781 -1.81,-2.953 z m 6.7,-24.57 -1.34,0.613 c -0.46,0.719 -9.92,15.379 -7.85,24.168 0.42,2.18 1.77,4.07 3.69,5.18 1.77,1.378 4.26,1.312 5.96,-0.168 4.87,-4.301 3.43,-22.231 0.56,-28.723 l -0.55,-0.418 -0.47,-0.652"
         style="fill:#4870c0;fill-opacity:1;fill-rule:nonzero;stroke:none"
         id="path336" />
      <path
         d="m 2391.22,206.051 -58.09,-1.172 c -2.47,-0.047 -4.58,-1.82 -5.06,-4.25 l -10.86,-54.109 c -0.92,-4.84 2.26,-9.52 7.1,-10.438 l 1.97,-0.152 c 23.77,0.859 25.65,2.359 55.51,2.961 18.39,0.359 73.91,-0.45 99.3,0.058 25.39,0.5 28.2,25.653 17.77,27.75 -46.84,9.231 -82.21,22.61 -97.4,35.699 -2.82,2.481 -6.48,3.793 -10.24,3.653"
         style="fill:#1d2a30;fill-opacity:1;fill-rule:nonzero;stroke:none"
         id="path338" />
      <path
         d="m 2400.47,201.281 c 7.1,-2.25 14.8,-1.711 21.52,1.5 1.42,1.328 2.11,3.278 1.82,5.199 -0.1,1.149 -0.57,1.68 -0.95,1.668 L 2421,210 c -7.34,-1.57 -14.31,-4.531 -20.53,-8.719 z m -4.12,-2.09 -1.1,1.207 0.67,1.403 c 2.12,1.429 21.43,13.828 28.19,10.5 1.55,-0.711 2.56,-2.25 2.55,-3.961 0.45,-2.899 -0.62,-5.84 -2.85,-7.75 -3.37,-2.399 -7.44,-3.559 -11.56,-3.309 -5.36,0.051 -10.69,0.688 -15.9,1.91"
         style="fill:#4870c0;fill-opacity:1;fill-rule:nonzero;stroke:none"
         id="path340" />
      <path
         d="m 2405.2,222.621 c -4.15,-5.519 -6.51,-12.18 -6.78,-19.07 6.14,4.808 13.64,15.039 12.79,18.949 -0.09,0.391 -0.26,1.469 -2.11,1.43 l -0.69,-0.008 c -1.19,-0.031 -2.33,-0.5 -3.21,-1.301 z m -9.22,-23.742 -0.73,1.301 c 0.07,0.84 1.18,18.261 8.07,24.09 1.64,1.5 3.84,2.222 6.04,1.972 2.24,0.047 4.21,-1.48 4.69,-3.683 1.36,-6.36 -10.45,-19.911 -16.62,-23.418 l -0.69,-0.02 -0.76,-0.242"
         style="fill:#4870c0;fill-opacity:1;fill-rule:nonzero;stroke:none"
         id="path342" />
      <path
         d="M 2072.7,1156.61 1861,1067.72 c -87.5,217.5 -206.5,322.1 -206.5,322.1 84.8,101.69 241.4,148.49 241.4,148.49 21.8,-16.8 41.4,-39.89 59.1,-66.39 17.3,-26.21 32.6,-55.71 46,-85.9 48.8,-110.1 71.7,-229.41 71.7,-229.41"
         style="fill:#4870c0;fill-opacity:1;fill-rule:nonzero;stroke:none"
         id="path344" />
      <path
         d="m 1853.7,1681.45 c 0,0 66.54,67.8 2.76,112.43 -63.77,44.63 -126.9,-14.98 -126.9,-14.98 0,0 -151.28,-38.06 -118.05,-138.55 33.23,-100.49 54.4,-108.87 6.88,-161.03 -47.51,-52.16 -95.87,-129.21 -46.32,-177.68 49.54,-48.47 220.61,3.5 271.97,77.89 51.37,74.4 -42.15,232.09 9.66,301.92"
         style="fill:#1d2a30;fill-opacity:1;fill-rule:nonzero;stroke:none"
         id="path346" />
      <path
         d="m 2057.33,1221.81 -229.79,-78.92 c 0,0 50.81,-250.468 87.73,-292.331 C 1952.2,808.691 2198.9,614.66 2233.79,629.91 2268.68,645.18 2500,850.559 2500,850.559 l -391.68,268.571 -50.99,102.68"
         style="fill:#1d2a30;fill-opacity:1;fill-rule:nonzero;stroke:none"
         id="path348" />
      <path
         d="m 2023.84,1174.68 48.85,16.21 -12.06,24.28 -46.31,-16.31 9.52,-24.18"
         style="fill:#100f0d;fill-opacity:1;fill-rule:nonzero;stroke:none"
         id="path350" />
      <path
         d="m 1877.61,1150.72 -50.07,-17.63 6.62,-21.33 49.01,16.26 -5.56,22.7"
         style="fill:#100f0d;fill-opacity:1;fill-rule:nonzero;stroke:none"
         id="path352" />
      <path
         d="m 1893.74,1131.52 120.22,39.88 -8.92,24.2 -117.9,-41.53 6.6,-22.55"
         style="fill:#100f0d;fill-opacity:1;fill-rule:nonzero;stroke:none"
         id="path354" />
      <path
         d="m 2001,1386.02 c -50.6,5.9 -79.1,82 -79.1,82 11.7,2.1 22.7,3.3 33.1,3.9 17.3,-26.21 32.6,-55.71 46,-85.9"
         style="fill:#395eb4;fill-opacity:1;fill-rule:nonzero;stroke:none"
         id="path356" />
      <path
         d="m 1895.9,1538.34 c 54.98,8.15 178.05,-36.42 188.71,-35.89 10.66,0.53 130.43,94.27 130.43,94.27 l 30.97,-27.29 c 0,0 -125.02,-128.96 -150.74,-130.35 -25.71,-1.37 -160.22,8.66 -160.22,8.66 0,0 -32.8,11.72 -39.15,41.39 -6.34,29.67 0,49.21 0,49.21"
         style="fill:#4870c0;fill-opacity:1;fill-rule:nonzero;stroke:none"
         id="path358" />
    </g>
  </g>
</svg>
