<svg width="57" height="58" viewBox="0 0 57 58" fill="none" xmlns="http://www.w3.org/2000/svg">
<path d="M0 20L8.18353 45H22.2569L25.4615 37.4128L28.9688 45L32 32.8749L27.2089 20.2453H23.7341L15.7262 39.1295L10.2345 20H0Z" fill="black"/>
<path d="M33.7693 50.4045H7.80915L0 58H41.1563L51.6467 16.2978L57 17.0275L51.4033 0L37.7767 12.8923L43.13 14.3518L33.7693 50.4045Z" fill="#7BB39A"/>
<path d="M33.7693 50.4045H7.80915L0 58H41.1563L51.6467 16.2978L57 17.0275L51.4033 0L37.7767 12.8923L43.13 14.3518L33.7693 50.4045Z" fill="url(#paint0_linear)"/>
<defs>
<linearGradient id="paint0_linear" x1="44.1111" y1="66.6504" x2="66.8926" y2="16.8518" gradientUnits="userSpaceOnUse">
<stop stopColor="#46749E"/>
<stop offset="1" stopColor="white" stop-opacity="0"/>
</linearGradient>
</defs>
</svg>
